<?xml version="1.0" standalone="no"?>
<!DOCTYPE svg PUBLIC "-//W3C//DTD SVG 20010904//EN"
 "http://www.w3.org/TR/2001/REC-SVG-20010904/DTD/svg10.dtd">
<svg version="1.0" xmlns="http://www.w3.org/2000/svg"
 width="50.000000pt" height="50.000000pt" viewBox="0 0 50.000000 50.000000"
 preserveAspectRatio="xMidYMid meet">

<g transform="translate(0.000000,50.000000) scale(0.100000,-0.100000)"
fill="#000000" stroke="none">
<path d="M172 468 c-7 -7 -12 -22 -12 -35 0 -21 -4 -23 -53 -23 -43 0 -58 -5
-75 -23 -21 -22 -22 -32 -22 -195 l0 -172 240 0 240 0 0 173 c0 168 -1 174
-23 195 -18 17 -36 22 -75 22 -48 0 -52 2 -52 23 0 37 -19 47 -90 47 -38 0
-71 -5 -78 -12z m146 -35 c3 -22 0 -23 -67 -23 -62 0 -71 2 -71 18 0 29 10 33
75 30 54 -3 60 -5 63 -25z m-21 -124 c17 -15 17 -67 -2 -103 -21 -39 -20 -41
20 -65 57 -33 44 -41 -65 -41 -109 0 -122 8 -65 41 39 23 41 32 20 69 -34 60
-6 127 49 116 16 -3 35 -11 43 -17z"/>
</g>
</svg>
